<svg height="1066.6666pt" viewBox="-33 -33 1066.6666 1066.6666" width="1066.6666pt" xmlns="http://www.w3.org/2000/svg"><path d="m596.703125 56.574219c-17.863281 0-26.820313 21.691406-14.203125 34.300781 12.613281 12.613281 34.300781 3.65625 34.300781-14.214844 0-11.101562-8.988281-20.085937-20.097656-20.085937zm159.089844 653.265625c0-16.183594 13.113281-29.296875 29.296875-29.296875 16.179687 0 29.296875 13.113281 29.296875 29.296875v45.953125h45.949219c16.183593 0 29.296874 13.113281 29.296874 29.296875 0 16.179687-13.113281 29.296875-29.296874 29.296875h-45.949219v45.949219c0 16.183593-13.117188 29.296874-29.296875 29.296874-16.183594 0-29.296875-13.113281-29.296875-29.296874v-45.949219h-45.953125c-16.183594 0-29.296875-13.117188-29.296875-29.296875 0-16.183594 13.113281-29.296875 29.296875-29.296875h45.953125zm29.296875 288.140625c-56.847656 0-108.492188-22.285157-146.675782-58.59375h-386.890624c-40.640626 0-75.0625-28.199219-84.183594-67.96875l-81.617188-355.859375h-29.769531c-31.949219 0-57.972656-26.027344-57.972656-57.96875v-75.464844c0-31.949219 26.023437-57.972656 57.972656-57.972656h48.289063l224.425781-213.742188c-24.652344-51.820312 13.128906-112.429687 71.097656-112.429687 43.453125 0 78.683594 35.226562 78.683594 78.679687 0 55.304688-55.597657 93.121094-106.796875 73.515625l-182.664063 173.976563h618.503907l-182.652344-173.980469c-51.207032 19.613281-106.816406-18.1875-106.816406-73.507813 0-43.457031 35.230468-78.683593 78.679687-78.683593 57.960937 0 95.734375 60.59375 71.105469 112.414062l224.421875 213.757813h47.78125c31.941406 0 57.96875 26.023437 57.96875 57.972656v75.464844c0 31.941406-26.027344 57.96875-57.96875 57.96875h-29.898438l-19.429687 84.640625c121.484375 69.539062 144.429687 235.929687 44.941406 335.425781-38.53125 38.527344-91.753906 62.355469-150.535156 62.355469zm-190.214844-117.1875c-41.476562-82.261719-24.96875-181.59375 39.675781-246.242188 51.832031-51.824219 127.699219-74.222656 201.1875-56.285156l14.390625-62.707031h-704.421875l78.621094 342.8125c3.046875 13.261718 13.515625 22.421875 27.195313 22.421875zm299.320312 13.402343c60.253907-60.253906 60.253907-157.960937 0-218.214843-60.253906-60.253907-157.960937-60.257813-218.214843 0-27.914063 27.925781-45.1875 66.5-45.1875 109.109375 0 134.515625 164.640625 207.859375 263.402343 109.105468zm-480.226562-831.738281c-12.605469-12.609375-34.300781-3.65625-34.300781 14.203125 0 17.871094 21.695312 26.828125 34.300781 14.214844 7.84375-7.84375 7.84375-20.578125 0-28.417969zm-91.769531 479.515625c-16.183594 0-29.296875 13.109375-29.296875 29.296875 0 16.183594 13.113281 29.296875 29.296875 29.296875 16.179687 0 29.296875-13.113281 29.296875-29.296875 0-16.1875-13.117188-29.296875-29.296875-29.296875zm117.1875 0c-16.183594 0-29.296875 13.109375-29.296875 29.296875 0 16.183594 13.113281 29.296875 29.296875 29.296875 16.175781 0 29.296875-13.113281 29.296875-29.296875 0-16.1875-13.117188-29.296875-29.296875-29.296875zm117.179687 0c-16.175781 0-29.296875 13.109375-29.296875 29.296875 0 16.183594 13.121094 29.296875 29.296875 29.296875 16.183594 0 29.296875-13.113281 29.296875-29.296875 0-16.1875-13.113281-29.296875-29.296875-29.296875zm-234.367187 234.375c-16.183594 0-29.296875 13.109375-29.296875 29.296875 0 16.183594 13.113281 29.296875 29.296875 29.296875 16.179687 0 29.296875-13.113281 29.296875-29.296875 0-16.1875-13.117188-29.296875-29.296875-29.296875zm117.1875 0c-16.183594 0-29.296875 13.109375-29.296875 29.296875 0 16.183594 13.113281 29.296875 29.296875 29.296875 16.175781 0 29.296875-13.113281 29.296875-29.296875 0-16.1875-13.117188-29.296875-29.296875-29.296875zm58.59375-117.1875c-16.183594 0-29.296875 13.109375-29.296875 29.296875 0 16.183594 13.113281 29.296875 29.296875 29.296875 16.179687 0 29.296875-13.113281 29.296875-29.296875 0-16.1875-13.117188-29.296875-29.296875-29.296875zm-117.183594 0c-16.175781 0-29.296875 13.109375-29.296875 29.296875 0 16.183594 13.121094 29.296875 29.296875 29.296875s29.296875-13.113281 29.296875-29.296875c0-16.1875-13.121094-29.296875-29.296875-29.296875zm-117.191406 0c-16.183594 0-29.296875 13.109375-29.296875 29.296875 0 16.183594 13.113281 29.296875 29.296875 29.296875 16.179687 0 29.296875-13.113281 29.296875-29.296875 0-16.1875-13.117188-29.296875-29.296875-29.296875zm675.78125-276.414062h-882.8125v74.21875h882.8125zm0 0" fill-rule="evenodd"/></svg>